<?xml version="1.0" encoding="UTF-8" standalone="no"?>
<!DOCTYPE svg PUBLIC "-//W3C//DTD SVG 1.1//EN"
 "http://www.w3.org/Graphics/SVG/1.1/DTD/svg11.dtd">
<!-- Generated by graphviz version 2.47.1 (20210515.0534)
 -->
<!-- Title: largeRelationshipsDiagram Pages: 1 -->
<svg width="712pt" height="773pt"
 viewBox="0.00 0.00 712.00 773.00" xmlns="http://www.w3.org/2000/svg" xmlns:xlink="http://www.w3.org/1999/xlink">
<g id="graph0" class="graph" transform="scale(1 1) rotate(0) translate(4 769)">
<title>largeRelationshipsDiagram</title>
<polygon fill="#ffffff" stroke="transparent" points="-4,4 -4,-769 708,-769 708,4 -4,4"/>
<text text-anchor="middle" x="73.5" y="-7.2" font-family="Helvetica,sans-Serif" font-size="11.00">Generated by SchemaSpy</text>
<!-- user_order -->
<g id="node1" class="node">
<title>user_order</title>
<g id="a_node1"><a xlink:href="../../tables/user_order.html" xlink:title="user_order" target="_top">
<polygon fill="#ffffff" stroke="transparent" points="393,-462 393,-612 501,-612 501,-462 393,-462"/>
<polygon fill="#f5f5f5" stroke="transparent" points="393,-590 393,-612 501,-612 501,-590 393,-590"/>
<polygon fill="none" stroke="black" points="393,-590 393,-612 501,-612 501,-590 393,-590"/>
<text text-anchor="start" x="397.5" y="-599.2" font-family="Helvetica,sans-Serif" font-weight="bold" font-size="11.00">user_order</text>
<text text-anchor="start" x="462" y="-598.2" font-family="Helvetica,sans-Serif" font-size="11.00">[table]</text>
<polygon fill="none" stroke="black" points="393,-568 393,-590 501,-590 501,-568 393,-568"/>
<image xlink:href="../../images/primaryKeys.png" width="11px" height="12px" preserveAspectRatio="xMinYMin meet" x="398" y="-585"/>
<text text-anchor="start" x="425" y="-576.2" font-family="Helvetica,sans-Serif" font-size="11.00">id</text>
<polygon fill="none" stroke="black" points="393,-546 393,-568 501,-568 501,-546 393,-546"/>
<image xlink:href="../../images/foreignKeys.png" width="11px" height="12px" preserveAspectRatio="xMinYMin meet" x="398" y="-563"/>
<text text-anchor="start" x="425" y="-554.2" font-family="Helvetica,sans-Serif" font-size="11.00">user_id</text>
<polygon fill="none" stroke="black" points="393,-524 393,-546 501,-546 501,-524 393,-524"/>
<image xlink:href="../../images/foreignKeys.png" width="11px" height="12px" preserveAspectRatio="xMinYMin meet" x="398" y="-541"/>
<text text-anchor="start" x="425" y="-532.2" font-family="Helvetica,sans-Serif" font-size="11.00">store_id</text>
<polygon fill="none" stroke="black" points="393,-502 393,-524 501,-524 501,-502 393,-502"/>
<image xlink:href="../../images/foreignKeys.png" width="11px" height="12px" preserveAspectRatio="xMinYMin meet" x="398" y="-519"/>
<text text-anchor="start" x="425" y="-510.2" font-family="Helvetica,sans-Serif" font-size="11.00">state_id</text>
<polygon fill="none" stroke="black" points="393,-480 393,-502 501,-502 501,-480 393,-480"/>
<text text-anchor="start" x="425" y="-488.2" font-family="Helvetica,sans-Serif" font-size="11.00">created</text>
<polygon fill="#ffffff" stroke="transparent" points="393,-462 393,-480 440,-480 440,-462 393,-462"/>
<polygon fill="none" stroke="black" points="393,-462 393,-480 440,-480 440,-462 393,-462"/>
<text text-anchor="start" x="396" y="-468.2" font-family="Helvetica,sans-Serif" font-size="11.00">&lt; 3</text>
<polygon fill="#ffffff" stroke="transparent" points="440,-462 440,-480 466,-480 466,-462 440,-462"/>
<polygon fill="none" stroke="black" points="440,-462 440,-480 466,-480 466,-462 440,-462"/>
<text text-anchor="start" x="456" y="-468.2" font-family="Helvetica,sans-Serif" font-size="11.00"> &#160;</text>
<polygon fill="#ffffff" stroke="transparent" points="466,-462 466,-480 501,-480 501,-462 466,-462"/>
<polygon fill="none" stroke="black" points="466,-462 466,-480 501,-480 501,-462 466,-462"/>
<text text-anchor="start" x="482" y="-468.2" font-family="Helvetica,sans-Serif" font-size="11.00">1 &gt;</text>
</a>
</g>
</g>
<!-- store -->
<g id="node6" class="node">
<title>store</title>
<g id="a_node6"><a xlink:href="../../tables/store.html" xlink:title="store" target="_top">
<polygon fill="#ffffff" stroke="transparent" points="198,-335 198,-441 273,-441 273,-335 198,-335"/>
<polygon fill="#f5f5f5" stroke="transparent" points="198.5,-419 198.5,-441 273.5,-441 273.5,-419 198.5,-419"/>
<polygon fill="none" stroke="black" points="198.5,-419 198.5,-441 273.5,-441 273.5,-419 198.5,-419"/>
<text text-anchor="start" x="202.5" y="-428.2" font-family="Helvetica,sans-Serif" font-weight="bold" font-size="11.00">store</text>
<text text-anchor="start" x="234.5" y="-427.2" font-family="Helvetica,sans-Serif" font-size="11.00">[table]</text>
<polygon fill="none" stroke="black" points="198.5,-397 198.5,-419 273.5,-419 273.5,-397 198.5,-397"/>
<image xlink:href="../../images/primaryKeys.png" width="11px" height="12px" preserveAspectRatio="xMinYMin meet" x="203.5" y="-414"/>
<text text-anchor="start" x="221.5" y="-405.2" font-family="Helvetica,sans-Serif" font-size="11.00">id</text>
<polygon fill="none" stroke="black" points="198.5,-375 198.5,-397 273.5,-397 273.5,-375 198.5,-375"/>
<text text-anchor="start" x="221.5" y="-383.2" font-family="Helvetica,sans-Serif" font-size="11.00">location</text>
<polygon fill="none" stroke="black" points="198.5,-353 198.5,-375 273.5,-375 273.5,-353 198.5,-353"/>
<text text-anchor="start" x="221.5" y="-361.2" font-family="Helvetica,sans-Serif" font-size="11.00">name</text>
<polygon fill="#ffffff" stroke="transparent" points="198.5,-335 198.5,-353 224.5,-353 224.5,-335 198.5,-335"/>
<polygon fill="none" stroke="black" points="198.5,-335 198.5,-353 224.5,-353 224.5,-335 198.5,-335"/>
<text text-anchor="start" x="201.5" y="-341.2" font-family="Helvetica,sans-Serif" font-size="11.00"> &#160;</text>
<polygon fill="#ffffff" stroke="transparent" points="224.5,-335 224.5,-353 244.5,-353 244.5,-335 224.5,-335"/>
<polygon fill="none" stroke="black" points="224.5,-335 224.5,-353 244.5,-353 244.5,-335 224.5,-335"/>
<text text-anchor="start" x="234.5" y="-341.2" font-family="Helvetica,sans-Serif" font-size="11.00"> &#160;</text>
<polygon fill="#ffffff" stroke="transparent" points="244.5,-335 244.5,-353 273.5,-353 273.5,-335 244.5,-335"/>
<polygon fill="none" stroke="black" points="244.5,-335 244.5,-353 273.5,-353 273.5,-335 244.5,-335"/>
<text text-anchor="start" x="254.5" y="-341.2" font-family="Helvetica,sans-Serif" font-size="11.00">2 &gt;</text>
</a>
</g>
</g>
<!-- user_order&#45;&gt;store -->
<g id="edge10" class="edge">
<title>user_order:w&#45;&gt;store:e</title>
<path fill="none" stroke="black" d="M377.38,-533.2C319.65,-517.77 345.99,-408 274.5,-408"/>
<polygon fill="black" stroke="black" points="384.06,-534.02 391.56,-538.57 388.03,-534.51 392,-535 392,-535 392,-535 388.03,-534.51 392.44,-531.43 384.06,-534.02 384.06,-534.02"/>
<ellipse fill="none" stroke="black" cx="380.88" cy="-533.63" rx="3.2" ry="3.2"/>
</g>
<!-- app_user -->
<g id="node9" class="node">
<title>app_user</title>
<g id="a_node9"><a xlink:href="../../tables/app_user.html" xlink:title="app_user" target="_top">
<polygon fill="#ffffff" stroke="transparent" points="180,-567 180,-761 291,-761 291,-567 180,-567"/>
<polygon fill="#f5f5f5" stroke="transparent" points="180.5,-739 180.5,-761 291.5,-761 291.5,-739 180.5,-739"/>
<polygon fill="none" stroke="black" points="180.5,-739 180.5,-761 291.5,-761 291.5,-739 180.5,-739"/>
<text text-anchor="start" x="185" y="-748.2" font-family="Helvetica,sans-Serif" font-weight="bold" font-size="11.00">app_user</text>
<text text-anchor="start" x="252.5" y="-747.2" font-family="Helvetica,sans-Serif" font-size="11.00">[table]</text>
<polygon fill="none" stroke="black" points="180.5,-717 180.5,-739 291.5,-739 291.5,-717 180.5,-717"/>
<image xlink:href="../../images/primaryKeys.png" width="11px" height="12px" preserveAspectRatio="xMinYMin meet" x="185.5" y="-734"/>
<text text-anchor="start" x="200.5" y="-725.2" font-family="Helvetica,sans-Serif" font-size="11.00">id</text>
<polygon fill="#ffffff" stroke="transparent" points="180.5,-695 180.5,-717 291.5,-717 291.5,-695 180.5,-695"/>
<polygon fill="none" stroke="black" points="180.5,-695 180.5,-717 291.5,-717 291.5,-695 180.5,-695"/>
<text text-anchor="start" x="200.5" y="-703.2" font-family="Helvetica,sans-Serif" font-size="11.00">username</text>
<polygon fill="none" stroke="black" points="180.5,-673 180.5,-695 291.5,-695 291.5,-673 180.5,-673"/>
<text text-anchor="start" x="200.5" y="-681.2" font-family="Helvetica,sans-Serif" font-size="11.00">password</text>
<polygon fill="none" stroke="black" points="180.5,-651 180.5,-673 291.5,-673 291.5,-651 180.5,-651"/>
<text text-anchor="start" x="200.5" y="-659.2" font-family="Helvetica,sans-Serif" font-size="11.00">name</text>
<polygon fill="none" stroke="black" points="180.5,-629 180.5,-651 291.5,-651 291.5,-629 180.5,-629"/>
<text text-anchor="start" x="200.5" y="-637.2" font-family="Helvetica,sans-Serif" font-size="11.00">surname</text>
<polygon fill="none" stroke="black" points="180.5,-607 180.5,-629 291.5,-629 291.5,-607 180.5,-607"/>
<text text-anchor="start" x="200.5" y="-615.2" font-family="Helvetica,sans-Serif" font-size="11.00">phone_number</text>
<polygon fill="none" stroke="black" points="180.5,-585 180.5,-607 291.5,-607 291.5,-585 180.5,-585"/>
<text text-anchor="start" x="200.5" y="-593.2" font-family="Helvetica,sans-Serif" font-size="11.00">verified</text>
<polygon fill="#ffffff" stroke="transparent" points="180.5,-567 180.5,-585 224.5,-585 224.5,-567 180.5,-567"/>
<polygon fill="none" stroke="black" points="180.5,-567 180.5,-585 224.5,-585 224.5,-567 180.5,-567"/>
<text text-anchor="start" x="183.5" y="-573.2" font-family="Helvetica,sans-Serif" font-size="11.00"> &#160;</text>
<polygon fill="#ffffff" stroke="transparent" points="224.5,-567 224.5,-585 253.5,-585 253.5,-567 224.5,-567"/>
<polygon fill="none" stroke="black" points="224.5,-567 224.5,-585 253.5,-585 253.5,-567 224.5,-567"/>
<text text-anchor="start" x="243.5" y="-573.2" font-family="Helvetica,sans-Serif" font-size="11.00"> &#160;</text>
<polygon fill="#ffffff" stroke="transparent" points="253.5,-567 253.5,-585 291.5,-585 291.5,-567 253.5,-567"/>
<polygon fill="none" stroke="black" points="253.5,-567 253.5,-585 291.5,-585 291.5,-567 253.5,-567"/>
<text text-anchor="start" x="272.5" y="-573.2" font-family="Helvetica,sans-Serif" font-size="11.00">1 &gt;</text>
</a>
</g>
</g>
<!-- user_order&#45;&gt;app_user -->
<g id="edge11" class="edge">
<title>user_order:w&#45;&gt;app_user:e</title>
<path fill="none" stroke="black" d="M377.36,-558.92C312.97,-577.71 374.93,-728 292.5,-728"/>
<polygon fill="black" stroke="black" points="384.07,-558.04 392.47,-560.57 388.03,-557.52 392,-557 392,-557 392,-557 388.03,-557.52 391.53,-553.43 384.07,-558.04 384.07,-558.04"/>
<ellipse fill="none" stroke="black" cx="380.9" cy="-558.46" rx="3.2" ry="3.2"/>
</g>
<!-- order_state -->
<g id="node10" class="node">
<title>order_state</title>
<g id="a_node10"><a xlink:href="../../tables/order_state.html" xlink:title="order_state" target="_top">
<polygon fill="#ffffff" stroke="transparent" points="179.5,-462 179.5,-546 291.5,-546 291.5,-462 179.5,-462"/>
<polygon fill="#f5f5f5" stroke="transparent" points="179.5,-524 179.5,-546 291.5,-546 291.5,-524 179.5,-524"/>
<polygon fill="none" stroke="black" points="179.5,-524 179.5,-546 291.5,-546 291.5,-524 179.5,-524"/>
<text text-anchor="start" x="184.5" y="-533.2" font-family="Helvetica,sans-Serif" font-weight="bold" font-size="11.00">order_state</text>
<text text-anchor="start" x="252.5" y="-532.2" font-family="Helvetica,sans-Serif" font-size="11.00">[table]</text>
<polygon fill="none" stroke="black" points="179.5,-502 179.5,-524 291.5,-524 291.5,-502 179.5,-502"/>
<image xlink:href="../../images/primaryKeys.png" width="11px" height="12px" preserveAspectRatio="xMinYMin meet" x="184.5" y="-519"/>
<text text-anchor="start" x="211.5" y="-510.2" font-family="Helvetica,sans-Serif" font-size="11.00">id</text>
<polygon fill="none" stroke="black" points="179.5,-480 179.5,-502 291.5,-502 291.5,-480 179.5,-480"/>
<text text-anchor="start" x="211.5" y="-488.2" font-family="Helvetica,sans-Serif" font-size="11.00">name</text>
<polygon fill="#ffffff" stroke="transparent" points="179.5,-462 179.5,-480 224.5,-480 224.5,-462 179.5,-462"/>
<polygon fill="none" stroke="black" points="179.5,-462 179.5,-480 224.5,-480 224.5,-462 179.5,-462"/>
<text text-anchor="start" x="182.5" y="-468.2" font-family="Helvetica,sans-Serif" font-size="11.00"> &#160;</text>
<polygon fill="#ffffff" stroke="transparent" points="224.5,-462 224.5,-480 253.5,-480 253.5,-462 224.5,-462"/>
<polygon fill="none" stroke="black" points="224.5,-462 224.5,-480 253.5,-480 253.5,-462 224.5,-462"/>
<text text-anchor="start" x="243.5" y="-468.2" font-family="Helvetica,sans-Serif" font-size="11.00"> &#160;</text>
<polygon fill="#ffffff" stroke="transparent" points="253.5,-462 253.5,-480 291.5,-480 291.5,-462 253.5,-462"/>
<polygon fill="none" stroke="black" points="253.5,-462 253.5,-480 291.5,-480 291.5,-462 253.5,-462"/>
<text text-anchor="start" x="272.5" y="-468.2" font-family="Helvetica,sans-Serif" font-size="11.00">1 &gt;</text>
</a>
</g>
</g>
<!-- user_order&#45;&gt;order_state -->
<g id="edge9" class="edge">
<title>user_order:w&#45;&gt;order_state:e</title>
<path fill="none" stroke="black" d="M377.28,-513C344.61,-513 331.37,-513 292.5,-513"/>
<polygon fill="black" stroke="black" points="384,-513 392,-516.6 388,-513 392,-513 392,-513 392,-513 388,-513 392,-509.4 384,-513 384,-513"/>
<ellipse fill="none" stroke="black" cx="380.8" cy="-513" rx="3.2" ry="3.2"/>
</g>
<!-- category -->
<g id="node2" class="node">
<title>category</title>
<g id="a_node2"><a xlink:href="../../tables/category.html" xlink:title="category" target="_top">
<polygon fill="#ffffff" stroke="transparent" points="8,-89 8,-173 104,-173 104,-89 8,-89"/>
<polygon fill="#f5f5f5" stroke="transparent" points="8,-151 8,-173 104,-173 104,-151 8,-151"/>
<polygon fill="none" stroke="black" points="8,-151 8,-173 104,-173 104,-151 8,-151"/>
<text text-anchor="start" x="12.5" y="-160.2" font-family="Helvetica,sans-Serif" font-weight="bold" font-size="11.00">category</text>
<text text-anchor="start" x="65" y="-159.2" font-family="Helvetica,sans-Serif" font-size="11.00">[table]</text>
<polygon fill="none" stroke="black" points="8,-129 8,-151 104,-151 104,-129 8,-129"/>
<image xlink:href="../../images/primaryKeys.png" width="11px" height="12px" preserveAspectRatio="xMinYMin meet" x="13" y="-146"/>
<text text-anchor="start" x="40" y="-137.2" font-family="Helvetica,sans-Serif" font-size="11.00">id</text>
<polygon fill="none" stroke="black" points="8,-107 8,-129 104,-129 104,-107 8,-107"/>
<text text-anchor="start" x="40" y="-115.2" font-family="Helvetica,sans-Serif" font-size="11.00">name</text>
<polygon fill="#ffffff" stroke="transparent" points="8,-89 8,-107 45,-107 45,-89 8,-89"/>
<polygon fill="none" stroke="black" points="8,-89 8,-107 45,-107 45,-89 8,-89"/>
<text text-anchor="start" x="11" y="-95.2" font-family="Helvetica,sans-Serif" font-size="11.00"> &#160;</text>
<polygon fill="#ffffff" stroke="transparent" points="45,-89 45,-107 70,-107 70,-89 45,-89"/>
<polygon fill="none" stroke="black" points="45,-89 45,-107 70,-107 70,-89 45,-89"/>
<text text-anchor="start" x="60" y="-95.2" font-family="Helvetica,sans-Serif" font-size="11.00"> &#160;</text>
<polygon fill="#ffffff" stroke="transparent" points="70,-89 70,-107 104,-107 104,-89 70,-89"/>
<polygon fill="none" stroke="black" points="70,-89 70,-107 104,-107 104,-89 70,-89"/>
<text text-anchor="start" x="85" y="-95.2" font-family="Helvetica,sans-Serif" font-size="11.00">2 &gt;</text>
</a>
</g>
</g>
<!-- product_parameter -->
<g id="node3" class="node">
<title>product_parameter</title>
<g id="a_node3"><a xlink:href="../../tables/product_parameter.html" xlink:title="product_parameter" target="_top">
<polygon fill="#ffffff" stroke="transparent" points="367,-112 367,-240 527,-240 527,-112 367,-112"/>
<polygon fill="#f5f5f5" stroke="transparent" points="367,-218 367,-240 527,-240 527,-218 367,-218"/>
<polygon fill="none" stroke="black" points="367,-218 367,-240 527,-240 527,-218 367,-218"/>
<text text-anchor="start" x="372" y="-227.2" font-family="Helvetica,sans-Serif" font-weight="bold" font-size="11.00">product_parameter</text>
<text text-anchor="start" x="488" y="-226.2" font-family="Helvetica,sans-Serif" font-size="11.00">[table]</text>
<polygon fill="none" stroke="black" points="367,-196 367,-218 527,-218 527,-196 367,-196"/>
<image xlink:href="../../images/primaryKeys.png" width="11px" height="12px" preserveAspectRatio="xMinYMin meet" x="372" y="-213"/>
<text text-anchor="start" x="399" y="-204.2" font-family="Helvetica,sans-Serif" font-size="11.00">id</text>
<polygon fill="none" stroke="black" points="367,-174 367,-196 527,-196 527,-174 367,-174"/>
<image xlink:href="../../images/foreignKeys.png" width="11px" height="12px" preserveAspectRatio="xMinYMin meet" x="372" y="-191"/>
<text text-anchor="start" x="399" y="-182.2" font-family="Helvetica,sans-Serif" font-size="11.00">product_id</text>
<polygon fill="none" stroke="black" points="367,-152 367,-174 527,-174 527,-152 367,-152"/>
<image xlink:href="../../images/foreignKeys.png" width="11px" height="12px" preserveAspectRatio="xMinYMin meet" x="372" y="-169"/>
<text text-anchor="start" x="399" y="-160.2" font-family="Helvetica,sans-Serif" font-size="11.00">category_param_id</text>
<polygon fill="none" stroke="black" points="367,-130 367,-152 527,-152 527,-130 367,-130"/>
<text text-anchor="start" x="399" y="-138.2" font-family="Helvetica,sans-Serif" font-size="11.00">value</text>
<polygon fill="#ffffff" stroke="transparent" points="367,-112 367,-130 445,-130 445,-112 367,-112"/>
<polygon fill="none" stroke="black" points="367,-112 367,-130 445,-130 445,-112 367,-112"/>
<text text-anchor="start" x="370" y="-118.2" font-family="Helvetica,sans-Serif" font-size="11.00">&lt; 2</text>
<polygon fill="#ffffff" stroke="transparent" points="445,-112 445,-130 486,-130 486,-112 445,-112"/>
<polygon fill="none" stroke="black" points="445,-112 445,-130 486,-130 486,-112 445,-112"/>
<text text-anchor="start" x="476" y="-118.2" font-family="Helvetica,sans-Serif" font-size="11.00"> &#160;</text>
<polygon fill="#ffffff" stroke="transparent" points="486,-112 486,-130 527,-130 527,-112 486,-112"/>
<polygon fill="none" stroke="black" points="486,-112 486,-130 527,-130 527,-112 486,-112"/>
<text text-anchor="start" x="517" y="-118.2" font-family="Helvetica,sans-Serif" font-size="11.00"> &#160;</text>
</a>
</g>
</g>
<!-- product -->
<g id="node4" class="node">
<title>product</title>
<g id="a_node4"><a xlink:href="../../tables/product.html" xlink:title="product" target="_top">
<polygon fill="#ffffff" stroke="transparent" points="190,-164 190,-314 281,-314 281,-164 190,-164"/>
<polygon fill="#f5f5f5" stroke="transparent" points="190.5,-292 190.5,-314 281.5,-314 281.5,-292 190.5,-292"/>
<polygon fill="none" stroke="black" points="190.5,-292 190.5,-314 281.5,-314 281.5,-292 190.5,-292"/>
<text text-anchor="start" x="195" y="-301.2" font-family="Helvetica,sans-Serif" font-weight="bold" font-size="11.00">product</text>
<text text-anchor="start" x="242.5" y="-300.2" font-family="Helvetica,sans-Serif" font-size="11.00">[table]</text>
<polygon fill="none" stroke="black" points="190.5,-270 190.5,-292 281.5,-292 281.5,-270 190.5,-270"/>
<image xlink:href="../../images/primaryKeys.png" width="11px" height="12px" preserveAspectRatio="xMinYMin meet" x="195.5" y="-287"/>
<text text-anchor="start" x="211.5" y="-278.2" font-family="Helvetica,sans-Serif" font-size="11.00">id</text>
<polygon fill="#ffffff" stroke="transparent" points="190.5,-248 190.5,-270 281.5,-270 281.5,-248 190.5,-248"/>
<polygon fill="none" stroke="black" points="190.5,-248 190.5,-270 281.5,-270 281.5,-248 190.5,-248"/>
<text text-anchor="start" x="211.5" y="-256.2" font-family="Helvetica,sans-Serif" font-size="11.00">name</text>
<polygon fill="none" stroke="black" points="190.5,-226 190.5,-248 281.5,-248 281.5,-226 190.5,-226"/>
<text text-anchor="start" x="211.5" y="-234.2" font-family="Helvetica,sans-Serif" font-size="11.00">description</text>
<polygon fill="none" stroke="black" points="190.5,-204 190.5,-226 281.5,-226 281.5,-204 190.5,-204"/>
<text text-anchor="start" x="211.5" y="-212.2" font-family="Helvetica,sans-Serif" font-size="11.00">price</text>
<polygon fill="none" stroke="black" points="190.5,-182 190.5,-204 281.5,-204 281.5,-182 190.5,-182"/>
<image xlink:href="../../images/foreignKeys.png" width="11px" height="12px" preserveAspectRatio="xMinYMin meet" x="195.5" y="-199"/>
<text text-anchor="start" x="211.5" y="-190.2" font-family="Helvetica,sans-Serif" font-size="11.00">category_id</text>
<polygon fill="#ffffff" stroke="transparent" points="190.5,-164 190.5,-182 229.5,-182 229.5,-164 190.5,-164"/>
<polygon fill="none" stroke="black" points="190.5,-164 190.5,-182 229.5,-182 229.5,-164 190.5,-164"/>
<text text-anchor="start" x="193.5" y="-170.2" font-family="Helvetica,sans-Serif" font-size="11.00">&lt; 1</text>
<polygon fill="#ffffff" stroke="transparent" points="229.5,-164 229.5,-182 250.5,-182 250.5,-164 229.5,-164"/>
<polygon fill="none" stroke="black" points="229.5,-164 229.5,-182 250.5,-182 250.5,-164 229.5,-164"/>
<text text-anchor="start" x="240.5" y="-170.2" font-family="Helvetica,sans-Serif" font-size="11.00"> &#160;</text>
<polygon fill="#ffffff" stroke="transparent" points="250.5,-164 250.5,-182 281.5,-182 281.5,-164 250.5,-164"/>
<polygon fill="none" stroke="black" points="250.5,-164 250.5,-182 281.5,-182 281.5,-164 250.5,-164"/>
<text text-anchor="start" x="262.5" y="-170.2" font-family="Helvetica,sans-Serif" font-size="11.00">2 &gt;</text>
</a>
</g>
</g>
<!-- product_parameter&#45;&gt;product -->
<g id="edge6" class="edge">
<title>product_parameter:w&#45;&gt;product:e</title>
<path fill="none" stroke="black" d="M351.74,-187.57C314.41,-202.83 333.53,-281 282.5,-281"/>
<polygon fill="black" stroke="black" points="358.13,-186.42 366.64,-188.54 362.06,-185.71 366,-185 366,-185 366,-185 362.06,-185.71 365.36,-181.46 358.13,-186.42 358.13,-186.42"/>
<ellipse fill="none" stroke="black" cx="354.98" cy="-186.98" rx="3.2" ry="3.2"/>
</g>
<!-- category_parameter -->
<g id="node8" class="node">
<title>category_parameter</title>
<g id="a_node8"><a xlink:href="../../tables/category_parameter.html" xlink:title="category_parameter" target="_top">
<polygon fill="#ffffff" stroke="transparent" points="153,-37 153,-143 318,-143 318,-37 153,-37"/>
<polygon fill="#f5f5f5" stroke="transparent" points="153.5,-121 153.5,-143 318.5,-143 318.5,-121 153.5,-121"/>
<polygon fill="none" stroke="black" points="153.5,-121 153.5,-143 318.5,-143 318.5,-121 153.5,-121"/>
<text text-anchor="start" x="158.5" y="-130.2" font-family="Helvetica,sans-Serif" font-weight="bold" font-size="11.00">category_parameter</text>
<text text-anchor="start" x="279.5" y="-129.2" font-family="Helvetica,sans-Serif" font-size="11.00">[table]</text>
<polygon fill="none" stroke="black" points="153.5,-99 153.5,-121 318.5,-121 318.5,-99 153.5,-99"/>
<image xlink:href="../../images/primaryKeys.png" width="11px" height="12px" preserveAspectRatio="xMinYMin meet" x="158.5" y="-116"/>
<text text-anchor="start" x="185.5" y="-107.2" font-family="Helvetica,sans-Serif" font-size="11.00">id</text>
<polygon fill="none" stroke="black" points="153.5,-77 153.5,-99 318.5,-99 318.5,-77 153.5,-77"/>
<image xlink:href="../../images/foreignKeys.png" width="11px" height="12px" preserveAspectRatio="xMinYMin meet" x="158.5" y="-94"/>
<text text-anchor="start" x="185.5" y="-85.2" font-family="Helvetica,sans-Serif" font-size="11.00">category_id</text>
<polygon fill="none" stroke="black" points="153.5,-55 153.5,-77 318.5,-77 318.5,-55 153.5,-55"/>
<text text-anchor="start" x="185.5" y="-63.2" font-family="Helvetica,sans-Serif" font-size="11.00">name</text>
<polygon fill="#ffffff" stroke="transparent" points="153.5,-37 153.5,-55 229.5,-55 229.5,-37 153.5,-37"/>
<polygon fill="none" stroke="black" points="153.5,-37 153.5,-55 229.5,-55 229.5,-37 153.5,-37"/>
<text text-anchor="start" x="156.5" y="-43.2" font-family="Helvetica,sans-Serif" font-size="11.00">&lt; 1</text>
<polygon fill="#ffffff" stroke="transparent" points="229.5,-37 229.5,-55 269.5,-55 269.5,-37 229.5,-37"/>
<polygon fill="none" stroke="black" points="229.5,-37 229.5,-55 269.5,-55 269.5,-37 229.5,-37"/>
<text text-anchor="start" x="259.5" y="-43.2" font-family="Helvetica,sans-Serif" font-size="11.00"> &#160;</text>
<polygon fill="#ffffff" stroke="transparent" points="269.5,-37 269.5,-55 318.5,-55 318.5,-37 269.5,-37"/>
<polygon fill="none" stroke="black" points="269.5,-37 269.5,-55 318.5,-55 318.5,-37 269.5,-37"/>
<text text-anchor="start" x="299.5" y="-43.2" font-family="Helvetica,sans-Serif" font-size="11.00">1 &gt;</text>
</a>
</g>
</g>
<!-- product_parameter&#45;&gt;category_parameter -->
<g id="edge5" class="edge">
<title>product_parameter:w&#45;&gt;category_parameter:e</title>
<path fill="none" stroke="black" d="M352.37,-157.72C339.17,-144.32 344.72,-110 319.5,-110"/>
<polygon fill="black" stroke="black" points="358.54,-160.11 364.7,-166.36 362.27,-161.56 366,-163 366,-163 366,-163 362.27,-161.56 367.3,-159.64 358.54,-160.11 358.54,-160.11"/>
<ellipse fill="none" stroke="black" cx="355.55" cy="-158.96" rx="3.2" ry="3.2"/>
</g>
<!-- product&#45;&gt;category -->
<g id="edge4" class="edge">
<title>product:w&#45;&gt;category:e</title>
<path fill="none" stroke="black" d="M174.96,-190.72C145.45,-180.58 143.79,-140 105,-140"/>
<polygon fill="black" stroke="black" points="181.6,-191.76 188.94,-196.56 185.55,-192.38 189.5,-193 189.5,-193 189.5,-193 185.55,-192.38 190.06,-189.44 181.6,-191.76 181.6,-191.76"/>
<ellipse fill="none" stroke="black" cx="178.43" cy="-191.27" rx="3.2" ry="3.2"/>
</g>
<!-- store_product -->
<g id="node5" class="node">
<title>store_product</title>
<g id="a_node5"><a xlink:href="../../tables/store_product.html" xlink:title="store_product" target="_top">
<polygon fill="#ffffff" stroke="transparent" points="383.5,-313 383.5,-441 510.5,-441 510.5,-313 383.5,-313"/>
<polygon fill="#f5f5f5" stroke="transparent" points="384,-419 384,-441 511,-441 511,-419 384,-419"/>
<polygon fill="none" stroke="black" points="384,-419 384,-441 511,-441 511,-419 384,-419"/>
<text text-anchor="start" x="389" y="-428.2" font-family="Helvetica,sans-Serif" font-weight="bold" font-size="11.00">store_product</text>
<text text-anchor="start" x="472" y="-427.2" font-family="Helvetica,sans-Serif" font-size="11.00">[table]</text>
<polygon fill="none" stroke="black" points="384,-397 384,-419 511,-419 511,-397 384,-397"/>
<image xlink:href="../../images/primaryKeys.png" width="11px" height="12px" preserveAspectRatio="xMinYMin meet" x="389" y="-414"/>
<text text-anchor="start" x="416" y="-405.2" font-family="Helvetica,sans-Serif" font-size="11.00">id</text>
<polygon fill="#ffffff" stroke="transparent" points="384,-375 384,-397 511,-397 511,-375 384,-375"/>
<polygon fill="none" stroke="black" points="384,-375 384,-397 511,-397 511,-375 384,-375"/>
<image xlink:href="../../images/foreignKeys.png" width="11px" height="12px" preserveAspectRatio="xMinYMin meet" x="389" y="-392"/>
<text text-anchor="start" x="416" y="-383.2" font-family="Helvetica,sans-Serif" font-size="11.00">product_id</text>
<polygon fill="#ffffff" stroke="transparent" points="384,-353 384,-375 511,-375 511,-353 384,-353"/>
<polygon fill="none" stroke="black" points="384,-353 384,-375 511,-375 511,-353 384,-353"/>
<image xlink:href="../../images/foreignKeys.png" width="11px" height="12px" preserveAspectRatio="xMinYMin meet" x="389" y="-370"/>
<text text-anchor="start" x="416" y="-361.2" font-family="Helvetica,sans-Serif" font-size="11.00">store_id</text>
<polygon fill="none" stroke="black" points="384,-331 384,-353 511,-353 511,-331 384,-331"/>
<text text-anchor="start" x="416" y="-339.2" font-family="Helvetica,sans-Serif" font-size="11.00">amount</text>
<polygon fill="#ffffff" stroke="transparent" points="384,-313 384,-331 441,-331 441,-313 384,-313"/>
<polygon fill="none" stroke="black" points="384,-313 384,-331 441,-331 441,-313 384,-313"/>
<text text-anchor="start" x="387" y="-319.2" font-family="Helvetica,sans-Serif" font-size="11.00">&lt; 2</text>
<polygon fill="#ffffff" stroke="transparent" points="441,-313 441,-331 471,-331 471,-313 441,-313"/>
<polygon fill="none" stroke="black" points="441,-313 441,-331 471,-331 471,-313 441,-313"/>
<text text-anchor="start" x="461" y="-319.2" font-family="Helvetica,sans-Serif" font-size="11.00"> &#160;</text>
<polygon fill="#ffffff" stroke="transparent" points="471,-313 471,-331 511,-331 511,-313 471,-313"/>
<polygon fill="none" stroke="black" points="471,-313 471,-331 511,-331 511,-313 471,-313"/>
<text text-anchor="start" x="492" y="-319.2" font-family="Helvetica,sans-Serif" font-size="11.00">1 &gt;</text>
</a>
</g>
</g>
<!-- store_product&#45;&gt;product -->
<g id="edge7" class="edge">
<title>store_product:w&#45;&gt;product:e</title>
<path fill="none" stroke="black" d="M368.59,-383.9C322.56,-369.1 341.67,-281 282.5,-281"/>
<polygon fill="black" stroke="black" points="375.08,-384.85 382.48,-389.56 379.04,-385.42 383,-386 383,-386 383,-386 379.04,-385.42 383.52,-382.44 375.08,-384.85 375.08,-384.85"/>
<ellipse fill="none" stroke="black" cx="371.92" cy="-384.39" rx="3.2" ry="3.2"/>
</g>
<!-- store_product&#45;&gt;store -->
<g id="edge8" class="edge">
<title>store_product:w&#45;&gt;store:e</title>
<path fill="none" stroke="black" d="M368.52,-365.27C329.57,-372.48 321.25,-408 274.5,-408"/>
<polygon fill="black" stroke="black" points="375.03,-364.7 383.31,-367.59 379.02,-364.35 383,-364 383,-364 383,-364 379.02,-364.35 382.69,-360.41 375.03,-364.7 375.03,-364.7"/>
<ellipse fill="none" stroke="black" cx="371.84" cy="-364.98" rx="3.2" ry="3.2"/>
</g>
<!-- order_item -->
<g id="node7" class="node">
<title>order_item</title>
<g id="a_node7"><a xlink:href="../../tables/order_item.html" xlink:title="order_item" target="_top">
<polygon fill="#ffffff" stroke="transparent" points="576,-431 576,-559 696,-559 696,-431 576,-431"/>
<polygon fill="#f5f5f5" stroke="transparent" points="576,-537 576,-559 696,-559 696,-537 576,-537"/>
<polygon fill="none" stroke="black" points="576,-537 576,-559 696,-559 696,-537 576,-537"/>
<text text-anchor="start" x="581" y="-546.2" font-family="Helvetica,sans-Serif" font-weight="bold" font-size="11.00">order_item</text>
<text text-anchor="start" x="657" y="-545.2" font-family="Helvetica,sans-Serif" font-size="11.00">[table]</text>
<polygon fill="none" stroke="black" points="576,-515 576,-537 696,-537 696,-515 576,-515"/>
<image xlink:href="../../images/primaryKeys.png" width="11px" height="12px" preserveAspectRatio="xMinYMin meet" x="581" y="-532"/>
<text text-anchor="start" x="596" y="-523.2" font-family="Helvetica,sans-Serif" font-size="11.00">id</text>
<polygon fill="none" stroke="black" points="576,-493 576,-515 696,-515 696,-493 576,-493"/>
<image xlink:href="../../images/foreignKeys.png" width="11px" height="12px" preserveAspectRatio="xMinYMin meet" x="581" y="-510"/>
<text text-anchor="start" x="596" y="-501.2" font-family="Helvetica,sans-Serif" font-size="11.00">order_id</text>
<polygon fill="none" stroke="black" points="576,-471 576,-493 696,-493 696,-471 576,-471"/>
<image xlink:href="../../images/foreignKeys.png" width="11px" height="12px" preserveAspectRatio="xMinYMin meet" x="581" y="-488"/>
<text text-anchor="start" x="596" y="-479.2" font-family="Helvetica,sans-Serif" font-size="11.00">store_product_id</text>
<polygon fill="none" stroke="black" points="576,-449 576,-471 696,-471 696,-449 576,-449"/>
<text text-anchor="start" x="596" y="-457.2" font-family="Helvetica,sans-Serif" font-size="11.00">amount</text>
<polygon fill="#ffffff" stroke="transparent" points="576,-431 576,-449 634,-449 634,-431 576,-431"/>
<polygon fill="none" stroke="black" points="576,-431 576,-449 634,-449 634,-431 576,-431"/>
<text text-anchor="start" x="579" y="-437.2" font-family="Helvetica,sans-Serif" font-size="11.00">&lt; 2</text>
<polygon fill="#ffffff" stroke="transparent" points="634,-431 634,-449 665,-449 665,-431 634,-431"/>
<polygon fill="none" stroke="black" points="634,-431 634,-449 665,-449 665,-431 634,-431"/>
<text text-anchor="start" x="655" y="-437.2" font-family="Helvetica,sans-Serif" font-size="11.00"> &#160;</text>
<polygon fill="#ffffff" stroke="transparent" points="665,-431 665,-449 696,-449 696,-431 665,-431"/>
<polygon fill="none" stroke="black" points="665,-431 665,-449 696,-449 696,-431 665,-431"/>
<text text-anchor="start" x="686" y="-437.2" font-family="Helvetica,sans-Serif" font-size="11.00"> &#160;</text>
</a>
</g>
</g>
<!-- order_item&#45;&gt;user_order -->
<g id="edge2" class="edge">
<title>order_item:w&#45;&gt;user_order:e</title>
<path fill="none" stroke="black" d="M560.79,-507.03C532.36,-521.06 542.88,-579 502,-579"/>
<polygon fill="black" stroke="black" points="567.18,-505.67 575.75,-507.52 571.09,-504.84 575,-504 575,-504 575,-504 571.09,-504.84 574.25,-500.48 567.18,-505.67 567.18,-505.67"/>
<ellipse fill="none" stroke="black" cx="564.05" cy="-506.34" rx="3.2" ry="3.2"/>
</g>
<!-- order_item&#45;&gt;store_product -->
<g id="edge3" class="edge">
<title>order_item:w&#45;&gt;store_product:e</title>
<path fill="none" stroke="black" d="M561,-478.43C536.84,-463.65 549.46,-408 512,-408"/>
<polygon fill="black" stroke="black" points="567.25,-480.02 574.11,-485.49 571.12,-481.01 575,-482 575,-482 575,-482 571.12,-481.01 575.89,-478.51 567.25,-480.02 567.25,-480.02"/>
<ellipse fill="none" stroke="black" cx="564.15" cy="-479.23" rx="3.2" ry="3.2"/>
</g>
<!-- category_parameter&#45;&gt;category -->
<g id="edge1" class="edge">
<title>category_parameter:w&#45;&gt;category:e</title>
<path fill="none" stroke="black" d="M138.78,-93.18C125.33,-106.33 130.19,-140 105,-140"/>
<polygon fill="black" stroke="black" points="145.01,-90.82 153.77,-91.37 148.76,-89.41 152.5,-88 152.5,-88 152.5,-88 148.76,-89.41 151.23,-84.63 145.01,-90.82 145.01,-90.82"/>
<ellipse fill="none" stroke="black" cx="142.02" cy="-91.95" rx="3.2" ry="3.2"/>
</g>
</g>
</svg>
